<svg width="32" height="32" viewBox="0 0 32 32" fill="none" xmlns="http://www.w3.org/2000/svg">
<path d="M32.11 4C32.1945 4 32.2638 4.06933 32.2638 4.15383C32.2638 4.15383 32.2573 8.641 32.2573 11.3537C32.2573 11.7155 32.201 11.9993 32.1577 12.1467C32.0602 12.4912 31.8825 12.8573 31.5597 13.1975C31.0527 13.7305 30.6388 13.8952 29.7787 14.4022C28.4483 15.1865 27.3845 15.7737 26.3228 16.4215C25.8115 16.7335 25.7812 17.13 25.779 17.3012V22.2412C24.947 23.0753 23.3675 24.4577 20.7653 24.4143V18.9587L25.3912 16.298C25.4605 16.246 25.7725 15.96 25.7725 15.5613C25.7725 12.879 25.7768 4.15383 25.7768 4.15383C25.7768 4.06933 25.8462 4 25.9307 4H32.1121M6.4935 15.5613C6.4935 12.879 6.48916 4.15383 6.48916 4.15383C6.48916 4.06933 6.41983 4 6.33533 4H0.153833C0.0693331 4 0 4.06933 0 4.15383C0 4.15383 0.00649973 8.641 0.00649973 11.3537C0.00649973 11.7155 0.0628337 11.9972 0.106167 12.1467C0.203667 12.4912 0.381333 12.8573 0.704166 13.1975C1.21117 13.7305 1.62283 13.8952 2.48517 14.4022C3.8155 15.1865 4.87933 15.7737 5.941 16.4215C6.45233 16.7335 6.48266 17.13 6.48483 17.3012C6.487 17.4832 6.48483 22.1328 6.48483 22.2412C7.31683 23.0753 8.89633 24.4577 11.4985 24.4143V18.9587L6.87266 16.298C6.80333 16.246 6.49133 15.96 6.49133 15.5613M18.9952 7.93683H13.1387C12.9675 7.93683 12.8288 8.0755 12.8288 8.24667V14.9828C12.8288 16.7725 14.2783 18.222 16.068 18.222C17.8577 18.222 19.3072 16.7725 19.3072 14.9828V8.24667C19.3072 8.0755 19.1685 7.93683 18.9973 7.93683" fill="#BC4D0A"/>
</svg>
