<svg width="110" height="29" viewBox="0 0 110 29" fill="none" xmlns="http://www.w3.org/2000/svg">
<path d="M39.561 11.8696C39.561 8.69757 41.459 6.09323 45.4349 6.09323H54.4222L52.951 9.02257H46.88C44.982 9.02257 42.6767 9.3324 42.6767 12.3722V14.7209C42.6767 17.7672 44.9885 18.0684 46.88 18.0684H51.4279V15.0134H46.5767C46.0914 15.0134 45.7772 14.5021 45.996 14.0709L46.8194 12.4416C46.9299 12.2227 47.1552 12.0841 47.4 12.0841H54.5414V20.9956H45.437C41.4634 20.9956 39.5632 18.3912 39.5632 15.2257V11.8696H39.561ZM62.6057 20.9912C58.6169 20.9912 56.7254 18.3869 56.7254 15.2214V11.8652C56.7254 8.69973 58.6169 6.0954 62.6057 6.0954H66.2999C70.2735 6.0954 72.1737 8.69323 72.1737 11.8652V15.2214C72.1737 18.3999 70.2757 20.9912 66.2999 20.9912H62.6057ZM64.0487 9.03123C62.142 9.03123 59.8389 9.3259 59.8389 12.3657V14.7209C59.8389 17.7607 62.142 18.0619 64.0487 18.0619H64.859C66.744 18.0619 69.0624 17.7607 69.0624 14.7209V12.3657C69.0624 9.3259 66.744 9.03123 64.859 9.03123H64.0487ZM103.534 6.09106C107.523 6.09106 109.414 8.6954 109.414 11.8674V15.2236C109.414 18.3891 107.523 20.9934 103.534 20.9934H96.3472C96.2844 20.9934 96.2259 20.9826 96.1674 20.9696H94.5619V6.09323H103.534M106.294 12.3701C106.294 9.33023 103.991 9.0204 102.091 9.0204H97.6602V18.0662H102.091C103.989 18.0662 106.294 17.7564 106.294 14.7166V12.3679V12.3701ZM89.6089 6.0954L86.6882 14.3872C86.6882 14.3872 83.7805 7.8959 83.6765 7.7529C83.514 7.48857 83.215 7.3109 82.8835 7.30223C82.552 7.3109 82.253 7.48857 82.0905 7.7529C81.9865 7.8959 79.0789 14.3872 79.0789 14.3872L76.1582 6.0954H72.8974L77.5709 19.5482C77.8655 20.4084 78.1147 20.9912 78.9554 20.9912C79.6552 20.9912 79.9715 20.4842 80.2792 19.6956L82.8857 13.6397L85.4922 19.6956C85.802 20.4821 86.1184 20.9912 86.816 20.9912C87.6545 20.9912 87.9059 20.4106 88.2005 19.5482L92.874 6.0954H89.6132H89.6089Z" fill="white"/>
<path d="M32.11 4C32.1945 4 32.2638 4.06933 32.2638 4.15383C32.2638 4.15383 32.2573 8.641 32.2573 11.3537C32.2573 11.7155 32.201 11.9993 32.1577 12.1467C32.0602 12.4912 31.8825 12.8573 31.5597 13.1975C31.0527 13.7305 30.6388 13.8952 29.7787 14.4022C28.4483 15.1865 27.3845 15.7737 26.3228 16.4215C25.8115 16.7335 25.7812 17.13 25.779 17.3012V22.2412C24.947 23.0753 23.3675 24.4577 20.7653 24.4143V18.9587L25.3912 16.298C25.4605 16.246 25.7725 15.96 25.7725 15.5613C25.7725 12.879 25.7768 4.15383 25.7768 4.15383C25.7768 4.06933 25.8462 4 25.9307 4H32.1121M6.4935 15.5613C6.4935 12.879 6.48916 4.15383 6.48916 4.15383C6.48916 4.06933 6.41983 4 6.33533 4H0.153833C0.0693331 4 0 4.06933 0 4.15383C0 4.15383 0.00649973 8.641 0.00649973 11.3537C0.00649973 11.7155 0.0628337 11.9972 0.106167 12.1467C0.203667 12.4912 0.381333 12.8573 0.704166 13.1975C1.21117 13.7305 1.62283 13.8952 2.48517 14.4022C3.8155 15.1865 4.87933 15.7737 5.941 16.4215C6.45233 16.7335 6.48266 17.13 6.48483 17.3012C6.487 17.4832 6.48483 22.1328 6.48483 22.2412C7.31683 23.0753 8.89633 24.4577 11.4985 24.4143V18.9587L6.87266 16.298C6.80333 16.246 6.49133 15.96 6.49133 15.5613M18.9952 7.93683H13.1387C12.9675 7.93683 12.8288 8.0755 12.8288 8.24667V14.9828C12.8288 16.7725 14.2783 18.222 16.068 18.222C17.8577 18.222 19.3072 16.7725 19.3072 14.9828V8.24667C19.3072 8.0755 19.1685 7.93683 18.9973 7.93683" fill="#BC4D0A"/>
</svg>
